<?xml version="1.0" encoding="UTF-8" standalone="no"?>
<svg
   width="176"
   height="51"
   viewBox="0 0 176 51"
   fill="none"
   version="1.1"
   id="svg60"
   sodipodi:docname="logo - samuka Geek.svg"
   inkscape:version="1.2.2 (732a01da63, 2022-12-09)"
   xmlns:inkscape="http://www.inkscape.org/namespaces/inkscape"
   xmlns:sodipodi="http://sodipodi.sourceforge.net/DTD/sodipodi-0.dtd"
   xmlns="http://www.w3.org/2000/svg"
   xmlns:svg="http://www.w3.org/2000/svg">
  <sodipodi:namedview
     id="namedview62"
     pagecolor="#ffffff"
     bordercolor="#000000"
     borderopacity="0.25"
     inkscape:showpageshadow="2"
     inkscape:pageopacity="0.0"
     inkscape:pagecheckerboard="0"
     inkscape:deskcolor="#d1d1d1"
     showgrid="false"
     inkscape:zoom="8.5397727"
     inkscape:cx="87.94145"
     inkscape:cy="11.417166"
     inkscape:window-width="1920"
     inkscape:window-height="991"
     inkscape:window-x="-9"
     inkscape:window-y="-9"
     inkscape:window-maximized="1"
     inkscape:current-layer="svg60" />
  <g
     clip-path="url(#clip0_55_1110)"
     id="g35">
    <path
       d="M44.9557 34.0209L42.685 18.0625C42.1017 13.9584 38.5811 10.9167 34.4355 10.9167H15.5615C11.4159 10.9167 7.8953 13.9584 7.312 18.0625L5.04129 34.0209C4.58298 37.2292 7.06201 40.0834 10.291 40.0834C11.7076 40.0834 13.0408 39.5209 14.0408 38.5209L18.7488 33.8334H31.2481L35.9354 38.5209C36.9353 39.5209 38.2894 40.0834 39.6852 40.0834C42.935 40.0834 45.414 37.2292 44.9557 34.0209ZM22.9153 23.4167H18.7488V27.5834H16.6656V23.4167H12.4992V21.3334H16.6656V17.1667H18.7488V21.3334H22.9153V23.4167ZM31.2481 21.3334C30.1024 21.3334 29.1649 20.3959 29.1649 19.25C29.1649 18.1042 30.1024 17.1667 31.2481 17.1667C32.3939 17.1667 33.3314 18.1042 33.3314 19.25C33.3314 20.3959 32.3939 21.3334 31.2481 21.3334ZM35.4146 27.5834C34.2688 27.5834 33.3314 26.6459 33.3314 25.5C33.3314 24.3542 34.2688 23.4167 35.4146 23.4167C36.5603 23.4167 37.4978 24.3542 37.4978 25.5C37.4978 26.6459 36.5603 27.5834 35.4146 27.5834Z"
       fill="#2A7AE4"
       id="path33" />
  </g>
  <path
     d="M128.081 32.5C126.664 33.9167 125.014 34.625 123.131 34.625C121.964 34.625 120.864 34.3917 119.831 33.925C118.814 33.4584 117.923 32.8167 117.156 32C116.406 31.1834 115.806 30.225 115.356 29.125C114.923 28.0084 114.706 26.8084 114.706 25.525C114.706 24.3084 114.923 23.1667 115.356 22.1C115.806 21.0167 116.415 20.075 117.181 19.275C117.964 18.4584 118.881 17.8167 119.931 17.35C120.981 16.8667 122.123 16.625 123.356 16.625C125.022 16.625 126.447 16.975 127.631 17.675C128.831 18.375 129.73 19.3167 130.33 20.5L127.756 22.4C127.306 21.5167 126.672 20.8417 125.856 20.375C125.056 19.9084 124.181 19.675 123.231 19.675C122.481 19.675 121.789 19.8334 121.156 20.15C120.539 20.4667 120.006 20.9 119.556 21.45C119.123 22 118.781 22.6334 118.531 23.35C118.298 24.0667 118.181 24.825 118.181 25.625C118.181 26.4584 118.314 27.2417 118.581 27.975C118.848 28.6917 119.214 29.3167 119.681 29.85C120.148 30.3834 120.698 30.8084 121.331 31.125C121.981 31.425 122.681 31.575 123.431 31.575C125.147 31.575 126.697 30.7667 128.081 29.15V27.9H124.506V25.375H130.93V34.5H128.081V32.5Z"
     fill="#464646"
     id="path37" />
  <path
     d="M139.62 34.75C138.57 34.75 137.62 34.575 136.77 34.225C135.92 33.8584 135.195 33.3667 134.595 32.75C133.995 32.1334 133.529 31.4167 133.195 30.6C132.879 29.7834 132.721 28.925 132.721 28.025C132.721 27.0917 132.879 26.2167 133.195 25.4C133.512 24.5667 133.97 23.8417 134.57 23.225C135.17 22.5917 135.895 22.0917 136.745 21.725C137.612 21.3584 138.579 21.175 139.645 21.175C140.712 21.175 141.662 21.3584 142.495 21.725C143.345 22.0917 144.062 22.5834 144.645 23.2C145.245 23.8167 145.695 24.5334 145.995 25.35C146.311 26.1667 146.47 27.0167 146.47 27.9C146.47 28.1167 146.461 28.325 146.445 28.525C146.445 28.725 146.428 28.8917 146.395 29.025H136.27C136.32 29.5417 136.445 30 136.645 30.4C136.845 30.8 137.104 31.1417 137.42 31.425C137.737 31.7084 138.095 31.925 138.495 32.075C138.895 32.225 139.312 32.3 139.745 32.3C140.412 32.3 141.037 32.1417 141.62 31.825C142.22 31.4917 142.628 31.0584 142.845 30.525L145.72 31.325C145.236 32.325 144.462 33.15 143.395 33.8C142.345 34.4334 141.087 34.75 139.62 34.75ZM143.02 26.85C142.937 25.8667 142.57 25.0834 141.92 24.5C141.287 23.9 140.512 23.6 139.595 23.6C139.145 23.6 138.72 23.6834 138.32 23.85C137.937 24 137.595 24.2167 137.295 24.5C136.995 24.7834 136.745 25.125 136.545 25.525C136.362 25.925 136.254 26.3667 136.22 26.85H143.02Z"
     fill="#464646"
     id="path39" />
  <path
     d="M154.585 34.75C153.535 34.75 152.585 34.575 151.735 34.225C150.885 33.8584 150.16 33.3667 149.56 32.75C148.96 32.1334 148.494 31.4167 148.16 30.6C147.844 29.7834 147.686 28.925 147.686 28.025C147.686 27.0917 147.844 26.2167 148.16 25.4C148.477 24.5667 148.935 23.8417 149.535 23.225C150.135 22.5917 150.86 22.0917 151.71 21.725C152.577 21.3584 153.543 21.175 154.61 21.175C155.677 21.175 156.627 21.3584 157.46 21.725C158.31 22.0917 159.027 22.5834 159.61 23.2C160.21 23.8167 160.66 24.5334 160.96 25.35C161.276 26.1667 161.435 27.0167 161.435 27.9C161.435 28.1167 161.426 28.325 161.41 28.525C161.41 28.725 161.393 28.8917 161.36 29.025H151.235C151.285 29.5417 151.41 30 151.61 30.4C151.81 30.8 152.069 31.1417 152.385 31.425C152.702 31.7084 153.06 31.925 153.46 32.075C153.86 32.225 154.277 32.3 154.71 32.3C155.377 32.3 156.002 32.1417 156.585 31.825C157.185 31.4917 157.593 31.0584 157.81 30.525L160.685 31.325C160.201 32.325 159.427 33.15 158.36 33.8C157.31 34.4334 156.052 34.75 154.585 34.75ZM157.985 26.85C157.902 25.8667 157.535 25.0834 156.885 24.5C156.252 23.9 155.477 23.6 154.56 23.6C154.11 23.6 153.685 23.6834 153.285 23.85C152.902 24 152.56 24.2167 152.26 24.5C151.96 24.7834 151.71 25.125 151.51 25.525C151.327 25.925 151.219 26.3667 151.185 26.85H157.985Z"
     fill="#464646"
     id="path41" />
  <path
     d="M172.425 34.5L168.625 28.825L166.825 30.6V34.5H163.475V16.25H166.825V27.325L172.075 21.425H175.65L170.775 26.975L176 34.5H172.425Z"
     fill="#464646"
     id="path43" />
  <defs
     id="defs58">
    <clipPath
       id="clip0_55_1110">
      <rect
         width="49.9972"
         height="50"
         fill="white"
         transform="translate(0 0.5)"
         id="rect55" />
    </clipPath>
  </defs>
  <text
     xml:space="preserve"
     style="font-size:26.6667px;letter-spacing:-2px;fill:#2a7ae4;fill-opacity:1"
     x="39.809502"
     y="49.739918"
     id="text276"
     transform="rotate(-12.567451)"><tspan
       sodipodi:role="line"
       id="tspan274"
       x="39.809502"
       y="49.739918"
       style="font-style:normal;font-variant:normal;font-weight:bold;font-stretch:normal;font-size:26.6667px;font-family:'Segoe Print';-inkscape-font-specification:'Segoe Print Bold';fill:#2a7ae4;fill-opacity:1">Samuka</tspan></text>
</svg>
